<!DOCTYPE svg PUBLIC "-//W3C//DTD SVG 1.1//EN" "http://www.w3.org/Graphics/SVG/1.1/DTD/svg11.dtd">
<!-- Uploaded to: SVG Repo, www.svgrepo.com, Transformed by: SVG Repo Mixer Tools -->
<svg xmlns="http://www.w3.org/2000/svg" aria-label="JavaScript" role="img" viewBox="-143.36 -143.36 798.72 798.72" width="800px" height="800px" fill="#000000">
<g id="SVGRepo_bgCarrier" stroke-width="0">
<path transform="translate(-143.36, -143.36), scale(24.96)" d="M16,30.454977676272392C18.451740170605852,30.234618038148838,20.941914363142182,29.248741679262732,22.59729020965888,27.426841835405916C24.139121044993445,25.72990916355342,23.487309769655766,22.970149546557202,24.61468506907256,20.97369074361289C25.725858837840306,19.005923085935112,28.86972052953636,18.25263346800381,29.04988478189882,16C29.226606606974304,13.790407961226151,26.225032888952292,12.621027986961359,25.448786133163555,10.54474078250282C24.450783457797083,7.875305877395467,25.90202806909282,4.32935100420643,23.920784462024187,2.2807988759719997C22.02001719794811,0.3154571026488662,18.703823377456633,0.36896756020409266,16.000000000000004,0.7749523156706033C13.446763413371697,1.1583261484116676,11.189683569397765,2.6653471098088453,9.342971330289458,4.469688116618679C7.7273986347235795,6.048192878952063,7.0173098712071695,8.23731585581603,6.205231797776525,10.344987941796283C5.497649020471056,12.181452337327691,5.315195304629316,14.076147625747053,4.900385824415613,15.999999999999998C4.370582818811486,18.45718292092249,2.7016431045194924,20.854276340529058,3.4199010913508516,23.26312349134069C4.151415287925973,25.716428460453372,6.45805400693504,27.40709643823571,8.680547900497906,28.6776629199043C10.89799737957015,29.94534558533835,13.456022642436032,30.683627488609066,16,30.454977676272392" fill="#075985" strokewidth="0"/>
</g>
<g id="SVGRepo_tracerCarrier" stroke-linecap="round" stroke-linejoin="round" stroke="#00000" stroke-width="5.12">
<rect width="512" height="512" rx="15%" fill="#f7df1e"/>
<path d="M324 370c10 17 24 29 47 29c20 0 33-10 33 -24c0-16 -13 -22 -35 -32l-12-5c-35-15 -58 -33 -58 -72c0-36 27 -64 70 -64c31 0 53 11 68 39l-37 24c-8-15 -17 -21 -31 -21c-14 0-23 9 -23 21c0 14 9 20 30 29l12 5c41 18 64 35 64 76c0 43-34 67 -80 67c-45 0-74 -21 -88 -49zm-170 4c8 13 14 25 31 25c16 0 26-6 26 -30V203h48v164c0 50-29 72 -72 72c-39 0-61 -20 -72 -44z"/>
</g>
<g id="SVGRepo_iconCarrier">
<rect width="512" height="512" rx="15%" fill="#f7df1e"/>
<path d="M324 370c10 17 24 29 47 29c20 0 33-10 33 -24c0-16 -13 -22 -35 -32l-12-5c-35-15 -58 -33 -58 -72c0-36 27 -64 70 -64c31 0 53 11 68 39l-37 24c-8-15 -17 -21 -31 -21c-14 0-23 9 -23 21c0 14 9 20 30 29l12 5c41 18 64 35 64 76c0 43-34 67 -80 67c-45 0-74 -21 -88 -49zm-170 4c8 13 14 25 31 25c16 0 26-6 26 -30V203h48v164c0 50-29 72 -72 72c-39 0-61 -20 -72 -44z"/>
</g>
</svg>