<!DOCTYPE svg PUBLIC "-//W3C//DTD SVG 1.1//EN" "http://www.w3.org/Graphics/SVG/1.1/DTD/svg11.dtd">
<!-- Uploaded to: SVG Repo, www.svgrepo.com, Transformed by: SVG Repo Mixer Tools -->
<svg width="800px" height="800px" viewBox="-3.2 -3.2 38.40 38.40" xmlns="http://www.w3.org/2000/svg" xmlns:xlink="http://www.w3.org/1999/xlink" fill="#000000">
<g id="SVGRepo_bgCarrier" stroke-width="0">
<path transform="translate(-3.2, -3.2), scale(1.2)" d="M16,27.65379380785367C18.68672047380793,27.681695876313075,21.080150543304605,26.233307251014093,23.175707997055273,24.551675784897625C25.32033517871914,22.83066711232713,26.911615838779216,20.66299756083648,27.90618708192625,18.099382019906187C29.15395189163543,14.883132525827989,31.572734088183108,10.967204460433567,29.522174134824187,8.192969123230265C27.432575641955275,5.365917921928952,22.921676276703206,6.881510819700799,19.416425550914255,6.613447943615267C17.10911359565803,6.436997034069187,14.976669030282459,6.551089758938049,12.689956757142845,6.905730932831613C9.622138111316456,7.381512175022903,6.016927144776973,6.74048730574349,3.907911237184578,9.01862929772366C1.6554377496390704,11.451733011795401,0.9504363354731544,15.320744619831205,1.9826947244523225,18.471629116906154C2.9617019540818545,21.459968795515675,6.317784550195645,22.680795902264038,8.948272697394781,24.40392134687444C11.180618521765496,25.866240002534884,13.3314843602737,27.626080799823807,16,27.65379380785367" fill="#075985" strokewidth="0"/>
</g>
<g id="SVGRepo_tracerCarrier" stroke-linecap="round" stroke-linejoin="round" stroke="#00000" stroke-width="0.32">
<defs>
<radialGradient id="a" cx="-16.114" cy="20.532" r="18.384" gradientTransform="translate(26.52 -9.307)" gradientUnits="userSpaceOnUse">
<stop offset="0" stop-color="#ffffff"/>
<stop offset="0.5" stop-color="#4c6b96"/>
<stop offset="1" stop-color="#231f20"/>
</radialGradient>
</defs>
<title>file_type_php</title>
<ellipse cx="16" cy="16" rx="14" ry="7.365" style="fill:url(#a)"/>
<ellipse cx="16" cy="16" rx="13.453" ry="6.818" style="fill:#6280b6"/>
<path d="M18.725,18.2l.667-3.434a1.752,1.752,0,0,0-.372-1.719,2.929,2.929,0,0,0-2-.525H15.867l.331-1.7a.219.219,0,0,0-.215-.26h-1.6a.219.219,0,0,0-.215.177l-.709,3.646a2.051,2.051,0,0,0-.477-1.054,2.783,2.783,0,0,0-2.2-.807H7.7a.219.219,0,0,0-.215.177l-1.434,7.38a.219.219,0,0,0,.215.26H7.869a.219.219,0,0,0,.215-.177l.347-1.785h1.2a5.167,5.167,0,0,0,1.568-.2,3.068,3.068,0,0,0,1.15-.689,3.538,3.538,0,0,0,.68-.844l-.287,1.475a.219.219,0,0,0,.215.26h1.6a.219.219,0,0,0,.215-.177l.787-4.051h1.094c.466,0,.6.093.64.133s.1.165.025.569l-.635,3.265a.219.219,0,0,0,.215.26h1.62A.219.219,0,0,0,18.725,18.2ZM11.33,15.366a1.749,1.749,0,0,1-.561,1.092,2.171,2.171,0,0,1-1.315.321H8.742l.515-2.651h.921c.677,0,.949.145,1.059.266A1.181,1.181,0,0,1,11.33,15.366Z" style="fill:#fff"/>
<path d="M25.546,13.332a2.783,2.783,0,0,0-2.2-.807H20.255a.219.219,0,0,0-.215.177l-1.434,7.38a.219.219,0,0,0,.215.26h1.608a.219.219,0,0,0,.215-.177l.347-1.785h1.2a5.167,5.167,0,0,0,1.568-.2,3.068,3.068,0,0,0,1.15-.689,3.425,3.425,0,0,0,1.076-1.927A2.512,2.512,0,0,0,25.546,13.332Zm-1.667,2.034a1.749,1.749,0,0,1-.561,1.092A2.171,2.171,0,0,1,22,16.778H21.29l.515-2.651h.921c.677,0,.949.145,1.059.266A1.181,1.181,0,0,1,23.879,15.366Z" style="fill:#fff"/>
<path d="M10.178,13.908a1.645,1.645,0,0,1,1.221.338,1.34,1.34,0,0,1,.145,1.161,1.945,1.945,0,0,1-.642,1.223A2.361,2.361,0,0,1,9.454,17H8.476l.6-3.089ZM6.261,20.124H7.869l.381-1.962H9.627a4.931,4.931,0,0,0,1.5-.191,2.84,2.84,0,0,0,1.07-.642,3.207,3.207,0,0,0,1.01-1.808,2.3,2.3,0,0,0-.385-2.044,2.568,2.568,0,0,0-2.035-.732H7.7Z" style="fill:#000004"/>
<path d="M14.387,10.782h1.6L15.6,12.744h1.421a2.767,2.767,0,0,1,1.85.468,1.548,1.548,0,0,1,.305,1.516l-.667,3.434H16.89l.635-3.265a.886.886,0,0,0-.08-.76,1.121,1.121,0,0,0-.8-.2H15.37l-.822,4.228h-1.6Z" style="fill:#000004"/>
<path d="M22.727,13.908a1.645,1.645,0,0,1,1.221.338,1.34,1.34,0,0,1,.145,1.161,1.945,1.945,0,0,1-.642,1.223A2.361,2.361,0,0,1,22,17h-.978l.6-3.089ZM18.81,20.124h1.608l.381-1.962h1.377a4.931,4.931,0,0,0,1.5-.191,2.84,2.84,0,0,0,1.07-.642,3.207,3.207,0,0,0,1.01-1.808,2.3,2.3,0,0,0-.385-2.044,2.568,2.568,0,0,0-2.035-.732H20.244Z" style="fill:#000004"/>
</g>
<g id="SVGRepo_iconCarrier">
<defs>
<radialGradient id="a" cx="-16.114" cy="20.532" r="18.384" gradientTransform="translate(26.52 -9.307)" gradientUnits="userSpaceOnUse">
<stop offset="0" stop-color="#ffffff"/>
<stop offset="0.5" stop-color="#4c6b96"/>
<stop offset="1" stop-color="#231f20"/>
</radialGradient>
</defs>
<title>file_type_php</title>
<ellipse cx="16" cy="16" rx="14" ry="7.365" style="fill:url(#a)"/>
<ellipse cx="16" cy="16" rx="13.453" ry="6.818" style="fill:#6280b6"/>
<path d="M18.725,18.2l.667-3.434a1.752,1.752,0,0,0-.372-1.719,2.929,2.929,0,0,0-2-.525H15.867l.331-1.7a.219.219,0,0,0-.215-.26h-1.6a.219.219,0,0,0-.215.177l-.709,3.646a2.051,2.051,0,0,0-.477-1.054,2.783,2.783,0,0,0-2.2-.807H7.7a.219.219,0,0,0-.215.177l-1.434,7.38a.219.219,0,0,0,.215.26H7.869a.219.219,0,0,0,.215-.177l.347-1.785h1.2a5.167,5.167,0,0,0,1.568-.2,3.068,3.068,0,0,0,1.15-.689,3.538,3.538,0,0,0,.68-.844l-.287,1.475a.219.219,0,0,0,.215.26h1.6a.219.219,0,0,0,.215-.177l.787-4.051h1.094c.466,0,.6.093.64.133s.1.165.025.569l-.635,3.265a.219.219,0,0,0,.215.26h1.62A.219.219,0,0,0,18.725,18.2ZM11.33,15.366a1.749,1.749,0,0,1-.561,1.092,2.171,2.171,0,0,1-1.315.321H8.742l.515-2.651h.921c.677,0,.949.145,1.059.266A1.181,1.181,0,0,1,11.33,15.366Z" style="fill:#fff"/>
<path d="M25.546,13.332a2.783,2.783,0,0,0-2.2-.807H20.255a.219.219,0,0,0-.215.177l-1.434,7.38a.219.219,0,0,0,.215.26h1.608a.219.219,0,0,0,.215-.177l.347-1.785h1.2a5.167,5.167,0,0,0,1.568-.2,3.068,3.068,0,0,0,1.15-.689,3.425,3.425,0,0,0,1.076-1.927A2.512,2.512,0,0,0,25.546,13.332Zm-1.667,2.034a1.749,1.749,0,0,1-.561,1.092A2.171,2.171,0,0,1,22,16.778H21.29l.515-2.651h.921c.677,0,.949.145,1.059.266A1.181,1.181,0,0,1,23.879,15.366Z" style="fill:#fff"/>
<path d="M10.178,13.908a1.645,1.645,0,0,1,1.221.338,1.34,1.34,0,0,1,.145,1.161,1.945,1.945,0,0,1-.642,1.223A2.361,2.361,0,0,1,9.454,17H8.476l.6-3.089ZM6.261,20.124H7.869l.381-1.962H9.627a4.931,4.931,0,0,0,1.5-.191,2.84,2.84,0,0,0,1.07-.642,3.207,3.207,0,0,0,1.01-1.808,2.3,2.3,0,0,0-.385-2.044,2.568,2.568,0,0,0-2.035-.732H7.7Z" style="fill:#000004"/>
<path d="M14.387,10.782h1.6L15.6,12.744h1.421a2.767,2.767,0,0,1,1.85.468,1.548,1.548,0,0,1,.305,1.516l-.667,3.434H16.89l.635-3.265a.886.886,0,0,0-.08-.76,1.121,1.121,0,0,0-.8-.2H15.37l-.822,4.228h-1.6Z" style="fill:#000004"/>
<path d="M22.727,13.908a1.645,1.645,0,0,1,1.221.338,1.34,1.34,0,0,1,.145,1.161,1.945,1.945,0,0,1-.642,1.223A2.361,2.361,0,0,1,22,17h-.978l.6-3.089ZM18.81,20.124h1.608l.381-1.962h1.377a4.931,4.931,0,0,0,1.5-.191,2.84,2.84,0,0,0,1.07-.642,3.207,3.207,0,0,0,1.01-1.808,2.3,2.3,0,0,0-.385-2.044,2.568,2.568,0,0,0-2.035-.732H20.244Z" style="fill:#000004"/>
</g>
</svg>