<!DOCTYPE svg PUBLIC "-//W3C//DTD SVG 1.1//EN" "http://www.w3.org/Graphics/SVG/1.1/DTD/svg11.dtd">
<!-- Uploaded to: SVG Repo, www.svgrepo.com, Transformed by: SVG Repo Mixer Tools -->
<svg width="800px" height="800px" viewBox="-76.8 -76.8 409.60 409.60" version="1.1" xmlns="http://www.w3.org/2000/svg" xmlns:xlink="http://www.w3.org/1999/xlink" preserveAspectRatio="xMidYMid" fill="#000000">
<g id="SVGRepo_bgCarrier" stroke-width="0" transform="translate(0,0), scale(1)">
<path transform="translate(-76.8, -76.8), scale(12.8)" d="M16,26.45399165319072C19.226521739890803,26.312182772480167,22.025624155385877,24.884057546527803,24.41356495717787,22.709594158982874C27.609114544224806,19.799720691892148,32.02286806286583,16.76765872925071,31.320382281382834,12.503222719111891C30.602681333520408,8.146423126507795,25.50860248091567,6.420895795180955,21.445540543598376,4.692218545315821C17.707590886547234,3.1018641197684866,13.656544827467597,1.7776949596668505,9.934190720868763,3.4042172443569623C6.064827788553261,5.094976601670122,3.2685213141902687,8.770731878687261,2.578113218070577,12.936541928021198C1.9303016653897238,16.845331369222446,3.8132750970146336,20.68074700036761,6.6049521715734105,23.49230063044762C9.039087943209854,25.943767287254154,12.548667502592806,26.605681193157633,16,26.45399165319072" fill="#075985" strokewidth="0"/>
</g>
<g id="SVGRepo_tracerCarrier" stroke-linecap="round" stroke-linejoin="round" stroke="#000000" stroke-width="2.56"> <defs> <linearGradient x1="-2.77777778%" y1="32%" x2="100%" y2="67.5555556%" id="linearGradient-1"> <stop stop-color="#2298BD" offset="0%"> </stop> <stop stop-color="#0ED7B5" offset="100%"> </stop> </linearGradient> </defs> <g> <path d="M128,-1.0658141e-14 C93.8666667,-1.0658141e-14 72.5333333,17.0666667 64,51.2 C76.8,34.1333333 91.7333333,27.7333333 108.8,32 C118.537481,34.4343704 125.497363,41.4985481 133.201067,49.3184 C145.750756,62.0567704 160.275437,76.8 192,76.8 C226.133333,76.8 247.466667,59.7333333 256,25.6 C243.2,42.6666667 228.266667,49.0666667 211.2,44.8 C201.462519,42.3656296 194.502637,35.3014519 186.798933,27.4816 C174.249244,14.7432296 159.724563,-1.0658141e-14 128,-1.0658141e-14 Z M64,76.8 C29.8666667,76.8 8.53333333,93.8666667 0,128 C12.8,110.933333 27.7333333,104.533333 44.8,108.8 C54.5374815,111.23437 61.497363,118.298548 69.2010667,126.1184 C81.7507556,138.85677 96.275437,153.6 128,153.6 C162.133333,153.6 183.466667,136.533333 192,102.4 C179.2,119.466667 164.266667,125.866667 147.2,121.6 C137.462519,119.16563 130.502637,112.101452 122.798933,104.2816 C110.249244,91.5432296 95.724563,76.8 64,76.8 Z" fill="url(#linearGradient-1)"> </path> </g> </g>
<g id="SVGRepo_iconCarrier"> <defs> <linearGradient x1="-2.77777778%" y1="32%" x2="100%" y2="67.5555556%" id="linearGradient-1"> <stop stop-color="#2298BD" offset="0%"> </stop> <stop stop-color="#0ED7B5" offset="100%"> </stop> </linearGradient> </defs> <g> <path d="M128,-1.0658141e-14 C93.8666667,-1.0658141e-14 72.5333333,17.0666667 64,51.2 C76.8,34.1333333 91.7333333,27.7333333 108.8,32 C118.537481,34.4343704 125.497363,41.4985481 133.201067,49.3184 C145.750756,62.0567704 160.275437,76.8 192,76.8 C226.133333,76.8 247.466667,59.7333333 256,25.6 C243.2,42.6666667 228.266667,49.0666667 211.2,44.8 C201.462519,42.3656296 194.502637,35.3014519 186.798933,27.4816 C174.249244,14.7432296 159.724563,-1.0658141e-14 128,-1.0658141e-14 Z M64,76.8 C29.8666667,76.8 8.53333333,93.8666667 0,128 C12.8,110.933333 27.7333333,104.533333 44.8,108.8 C54.5374815,111.23437 61.497363,118.298548 69.2010667,126.1184 C81.7507556,138.85677 96.275437,153.6 128,153.6 C162.133333,153.6 183.466667,136.533333 192,102.4 C179.2,119.466667 164.266667,125.866667 147.2,121.6 C137.462519,119.16563 130.502637,112.101452 122.798933,104.2816 C110.249244,91.5432296 95.724563,76.8 64,76.8 Z" fill="url(#linearGradient-1)"> </path> </g> </g>
</svg>