<!DOCTYPE svg PUBLIC "-//W3C//DTD SVG 1.1//EN" "http://www.w3.org/Graphics/SVG/1.1/DTD/svg11.dtd">
<!-- Uploaded to: SVG Repo, www.svgrepo.com, Transformed by: SVG Repo Mixer Tools -->
<svg xmlns="http://www.w3.org/2000/svg" aria-label="TypeScript" role="img" viewBox="-153.6 -153.6 819.20 819.20" width="800px" height="800px" fill="#000000">
<g id="SVGRepo_bgCarrier" stroke-width="0">
<path transform="translate(-153.6, -153.6), scale(25.6)" d="M16,29.612271522837027C18.10124448588175,29.8633077926011,20.209912626951446,29.563517915878936,22.233183886697752,28.943339709497803C24.442182339752165,28.266231935681173,27.110073231672413,27.79497048107701,28.330001774466105,25.832848300009537C29.574213099368652,23.831669908908076,28.513075447768813,21.21080830268794,28.50588313593575,18.85438621726316C28.5000475377937,16.94246517396592,28.458128589966673,15.099210709399891,28.29142698064534,13.194562000724678C28.10348403595176,11.047220482112,28.551731261682235,8.720335575327706,27.456425025993553,6.863805910043739C26.345207845599965,4.980307402727408,24.372251443338946,3.579539627926101,22.26784923924442,2.9846769442193217C20.221215026676145,2.4061438492217695,18.0968310037552,3.269390534166261,16,3.625356661421911C14.175121648247032,3.9351550564393554,12.46298062610067,4.456474448113429,10.679540932122475,4.951952905965005C8.577067182349866,5.536065985161439,5.727539435946791,5.024043355082506,4.491864131066341,6.822567888882322C3.222758882396459,8.669749682264305,5.200022234270273,11.240714837090778,4.839167202855949,13.452612745292305C4.507596023852979,15.485012278096692,2.054866520323442,17.07077958888059,2.4916318212123816,19.083196886467825C2.9270384371241103,21.089353977155508,5.550327433670637,21.716411619290742,6.957170550299999,23.21141584633786C8.242254603515779,24.577030866917717,8.914473449130691,26.45161775292815,10.445033831263425,27.535006106616947C12.079082288506104,28.69164722225399,14.012153872585536,29.37478298685561,16,29.612271522837027" fill="#075985" strokewidth="0"/>
</g>
<g id="SVGRepo_tracerCarrier" stroke-linecap="round" stroke-linejoin="round" stroke="#000000" stroke-width="5.12">
<rect width="512" height="512" rx="15%" fill="#3178c6"/>
<path fill="#ffffff" d="m233 284h64v-41H118v41h64v183h51zm84 173c8.1 4.2 18 7.3 29 9.4s23 3.1 35 3.1c12 0 23-1.1 34-3.4c11-2.3 20-6.1 28-11c8.1-5.3 15-12 19-21s7.1-19 7.1-32c0-9.1-1.4-17-4.1-24s-6.6-13-12-18c-5.1-5.3-11-10-18-14s-15-8.2-24-12c-6.6-2.7-12-5.3-18-7.9c-5.2-2.6-9.7-5.2-13-7.8c-3.7-2.7-6.5-5.5-8.5-8.4c-2-3-3-6.3-3-10c0-3.4.89-6.5 2.7-9.3s4.3-5.1 7.5-7.1c3.2-2 7.2-3.5 12-4.6c4.7-1.1 9.9-1.6 16-1.6c4.2 0 8.6.31 13 .94c4.6.63 9.3 1.6 14 2.9c4.7 1.3 9.3 2.9 14 4.9c4.4 2 8.5 4.3 12 6.9v-47c-7.6-2.9-16-5.1-25-6.5s-19-2.1-31-2.1c-12 0-23 1.3-34 3.8s-20 6.5-28 12c-8.1 5.4-14 12-19 21c-4.7 8.4-7 18-7 30c0 15 4.3 28 13 38c8.6 11 22 19 39 27c6.9 2.8 13 5.6 19 8.3s11 5.5 15 8.4c4.3 2.9 7.7 6.1 10 9.5c2.5 3.4 3.8 7.4 3.8 12c0 3.2-.78 6.2-2.3 9s-3.9 5.2-7.1 7.2s-7.1 3.6-12 4.8c-4.7 1.1-10 1.7-17 1.7c-11 0-22-1.9-32-5.7c-11-3.8-21-9.5-28.1-15.44z"/>
</g>
<g id="SVGRepo_iconCarrier">
<rect width="512" height="512" rx="15%" fill="#3178c6"/>
<path fill="#ffffff" d="m233 284h64v-41H118v41h64v183h51zm84 173c8.1 4.2 18 7.3 29 9.4s23 3.1 35 3.1c12 0 23-1.1 34-3.4c11-2.3 20-6.1 28-11c8.1-5.3 15-12 19-21s7.1-19 7.1-32c0-9.1-1.4-17-4.1-24s-6.6-13-12-18c-5.1-5.3-11-10-18-14s-15-8.2-24-12c-6.6-2.7-12-5.3-18-7.9c-5.2-2.6-9.7-5.2-13-7.8c-3.7-2.7-6.5-5.5-8.5-8.4c-2-3-3-6.3-3-10c0-3.4.89-6.5 2.7-9.3s4.3-5.1 7.5-7.1c3.2-2 7.2-3.5 12-4.6c4.7-1.1 9.9-1.6 16-1.6c4.2 0 8.6.31 13 .94c4.6.63 9.3 1.6 14 2.9c4.7 1.3 9.3 2.9 14 4.9c4.4 2 8.5 4.3 12 6.9v-47c-7.6-2.9-16-5.1-25-6.5s-19-2.1-31-2.1c-12 0-23 1.3-34 3.8s-20 6.5-28 12c-8.1 5.4-14 12-19 21c-4.7 8.4-7 18-7 30c0 15 4.3 28 13 38c8.6 11 22 19 39 27c6.9 2.8 13 5.6 19 8.3s11 5.5 15 8.4c4.3 2.9 7.7 6.1 10 9.5c2.5 3.4 3.8 7.4 3.8 12c0 3.2-.78 6.2-2.3 9s-3.9 5.2-7.1 7.2s-7.1 3.6-12 4.8c-4.7 1.1-10 1.7-17 1.7c-11 0-22-1.9-32-5.7c-11-3.8-21-9.5-28.1-15.44z"/>
</g>
</svg>